<svg width="28" height="23" viewBox="0 0 28 23" fill="none" xmlns="http://www.w3.org/2000/svg">
<path d="M18.6252 7.55972C18.579 7.57568 18.5316 7.58059 18.483 7.57323L14.1701 6.93359L10.7127 9.59889V13.1689C11.0809 13.256 11.8636 13.3125 12.2743 12.3856L12.6693 10.7417C12.6996 10.6165 12.8042 10.5232 12.9318 10.5085L17.698 9.97934C17.8633 9.96092 18.0152 10.0825 18.0334 10.2507C18.0516 10.4188 17.9313 10.5711 17.7648 10.5895L13.2098 11.0953L12.8586 12.5562C12.855 12.5734 12.8489 12.5894 12.8416 12.6053C12.4333 13.5568 11.7041 13.8269 11.0819 13.8269C10.7769 13.8269 10.4974 13.7618 10.2944 13.6795C10.179 13.6329 10.1036 13.5199 10.1036 13.3947L10.1048 9.44667C10.1048 9.35091 10.1486 9.26129 10.2239 9.20236L11.8731 7.9317H9.4559C9.39392 7.9317 9.33316 7.91206 9.28212 7.87646L8.43263 7.27488L5.06641 13.6184L5.68742 13.8112C5.80894 13.8492 5.89523 13.9597 5.9013 14.0886C5.91467 14.3342 6.03134 14.9873 6.38256 15.2512L6.62075 15.0106C6.85895 14.77 7.17491 14.6386 7.51156 14.6386C7.84697 14.6386 8.16296 14.77 8.40115 15.0106C8.57007 15.1825 8.67702 15.3912 8.72928 15.6097L9.0416 15.2954C9.2798 15.0548 9.59575 14.9222 9.93119 14.9222C10.2678 14.9222 10.5838 15.0548 10.822 15.2954C11.1465 15.6232 11.2522 16.0873 11.1465 16.5071C11.454 16.5256 11.742 16.6508 11.9607 16.873C12.1989 17.1124 12.329 17.4316 12.329 17.7704C12.329 17.8453 12.3205 17.919 12.3071 17.9927C12.6376 17.9963 12.9488 18.1265 13.1833 18.3622C13.6597 18.8447 13.6694 19.6206 13.2185 20.119L14.5153 21.1048C14.8385 21.3503 15.3015 21.284 15.5458 20.9575C15.6637 20.7991 15.7135 20.6027 15.6868 20.4063C15.6588 20.2098 15.558 20.0355 15.4 19.9152C15.383 19.9017 15.372 19.8845 15.3587 19.8685L14.5699 19.2461C14.4375 19.1417 14.4144 18.949 14.5177 18.8152C14.621 18.6814 14.8118 18.658 14.9442 18.7624L16.2555 19.7973C16.4086 19.914 16.6006 19.9643 16.7963 19.9361C16.9908 19.9078 17.1633 19.8047 17.2824 19.6463C17.4003 19.488 17.4501 19.2928 17.4222 19.0963C17.3942 18.8999 17.2921 18.7256 17.1354 18.6053C17.1196 18.593 17.1111 18.577 17.0977 18.5635L14.796 16.7637C14.6635 16.6606 14.6392 16.4666 14.7413 16.3328C14.8434 16.199 15.0354 16.1744 15.1678 16.2776L18.0748 18.5512C18.2291 18.6679 18.4224 18.7182 18.6168 18.69C18.8113 18.6617 18.9838 18.5598 19.1017 18.4002C19.2208 18.2419 19.2706 18.0454 19.2427 17.849C19.216 17.6624 19.1212 17.4979 18.9778 17.38L14.4654 14.0099C14.3305 13.9093 14.3026 13.7165 14.4022 13.5802C14.5019 13.444 14.6927 13.4145 14.8276 13.5164L19.3048 16.862C19.3096 16.8657 19.3145 16.8657 19.3194 16.8693C19.3279 16.8755 19.3339 16.8841 19.3412 16.8902L19.6803 17.1443C19.8395 17.2659 20.0339 17.3162 20.2284 17.288C20.4228 17.2597 20.5954 17.1578 20.7133 16.9982C20.8324 16.8386 20.8822 16.6434 20.8542 16.4458C20.8263 16.2494 20.7254 16.0763 20.5686 15.9572L15.3283 12.0383C15.1934 11.9377 15.1654 11.7449 15.2651 11.6087C15.3647 11.4724 15.5555 11.4441 15.6904 11.5448L20.932 15.4649C20.9576 15.4845 20.977 15.5079 21.0013 15.5287C22.0258 15.0242 22.2822 14.1157 22.2931 14.0764C22.3187 13.9794 22.3904 13.8996 22.4852 13.8665L22.9725 13.6909L19.5503 7.24082L18.6252 7.55972Z" fill="#BC9313"/>
<path d="M12.2918 18.6016C12.118 18.6016 11.9539 18.6703 11.8312 18.7943L11.4447 19.1847C11.322 19.3087 11.2539 19.4732 11.2539 19.6488C11.2539 19.8244 11.322 19.9901 11.4447 20.1141C11.5674 20.2381 11.7315 20.3056 11.9053 20.3056C12.0791 20.3056 12.2431 20.2369 12.3659 20.1129L12.7524 19.7237C13.0051 19.4671 13.0051 19.0497 12.7512 18.7931C12.6296 18.6691 12.4656 18.6016 12.2918 18.6016Z" fill="#BC9313"/>
<path d="M26.8172 12.2478L22.8008 4.6779C22.7485 4.58092 22.6476 4.51953 22.537 4.51953C22.4884 4.51953 22.441 4.53181 22.3973 4.55513L19.8792 5.91784C19.81 5.9559 19.7589 6.01851 19.7358 6.09586C19.7127 6.1732 19.72 6.25423 19.7577 6.32421L23.7741 13.8953C23.8483 14.0353 24.0354 14.0942 24.1776 14.0181L26.6957 12.6542C26.8403 12.5768 26.895 12.3939 26.8172 12.2478Z" fill="#BC9313"/>
<path d="M11.7179 17.7662C11.7179 17.5906 11.6499 17.4261 11.5271 17.3021C11.4032 17.1769 11.2403 17.1094 11.0665 17.1094C10.8927 17.1094 10.7299 17.1781 10.6071 17.3021L9.79774 18.1198C9.54618 18.3764 9.54618 18.7913 9.80017 19.0479C10.0457 19.2959 10.4747 19.2959 10.7201 19.0479L11.2427 18.52L11.5283 18.2327C11.6498 18.1075 11.7179 17.9418 11.7179 17.7662Z" fill="#BC9313"/>
<path d="M10.3903 16.6572C10.6443 16.4007 10.6443 15.9833 10.3903 15.7279C10.2675 15.6039 10.1035 15.5352 9.92969 15.5352C9.75591 15.5352 9.59307 15.6039 9.4703 15.7279L7.98767 17.2257C7.86493 17.3497 7.79688 17.5154 7.79688 17.6922C7.79688 17.8677 7.86493 18.0322 7.98646 18.155C8.11042 18.2803 8.27327 18.3478 8.44706 18.3478C8.62085 18.3478 8.78368 18.279 8.90766 18.155L9.3719 17.6861L9.74256 17.3128L10.3903 16.6572Z" fill="#BC9313"/>
<path d="M7.96944 15.4415C7.84669 15.3188 7.68385 15.25 7.51005 15.25C7.33625 15.25 7.17221 15.3187 7.04945 15.4427L6.24128 16.2579C5.98728 16.5145 5.98728 16.9319 6.24128 17.1885C6.48798 17.4365 6.91577 17.4365 7.16245 17.1885L7.97062 16.3721C8.2234 16.1155 8.22343 15.6981 7.96944 15.4415Z" fill="#BC9313"/>
<path d="M8.26402 6.09708C8.24093 6.01974 8.18989 5.9559 8.12062 5.91907L5.60255 4.55513C5.56001 4.53181 5.51262 4.51953 5.46401 4.51953C5.3522 4.51953 5.25134 4.57969 5.20029 4.6779L1.18385 12.2478C1.10607 12.3939 1.16076 12.5768 1.30537 12.6554L3.82345 14.0193C3.86598 14.0426 3.91338 14.0549 3.96199 14.0549C4.07379 14.0549 4.17466 13.9948 4.2257 13.8966L8.24215 6.32541C8.27861 6.25543 8.28711 6.17443 8.26402 6.09708Z" fill="#BC9313"/>
</svg>
