<svg width="26" height="17" viewBox="0 0 26 17" fill="none" xmlns="http://www.w3.org/2000/svg">
<path fill-rule="evenodd" clip-rule="evenodd" d="M3.30522 2.98004C4.48269 1.81277 6.28024 1.48349 7.80659 2.18474C6.60927 4.32125 6.85536 7.03976 8.54595 8.93657C6.95578 10.1344 4.71665 9.98132 3.30528 8.58214C1.74491 7.03528 1.74485 4.5279 3.30522 2.98004ZM9.98694 2.05454C8.32173 3.70532 8.32173 6.37998 9.98694 8.0309C11.6521 9.68182 14.3502 9.68168 16.0155 8.0309C17.6809 6.38012 17.6807 3.70546 16.0155 2.05454C14.3503 0.403624 11.6511 0.403764 9.98694 2.05454ZM19.5389 16.8154L19.5378 14.7686C19.5378 13.9678 19.2409 13.2665 18.6682 12.7064C14.9703 9.09206 11.0152 9.10634 7.33171 12.7349C6.7667 13.2917 6.47539 13.9853 6.47095 14.7784L6.46213 16.8154L19.5389 16.8154ZM21.2162 16.8154L21.2151 14.7686C21.214 13.5236 20.7395 12.3968 19.8456 11.5227C19.4826 11.1672 19.114 10.8423 18.7432 10.5469C20.905 10.1115 23.0889 10.9167 25.1834 12.9646C25.7219 13.4897 26 14.1461 26 14.8976V16.8164H21.2161L21.2162 16.8154ZM0.000946384 16.8154H4.78482L4.79475 14.7697C4.80027 13.539 5.26817 12.4231 6.14988 11.5555C6.52177 11.189 6.89806 10.8542 7.27768 10.5512C5.10926 10.1071 2.91869 10.91 0.8166 12.9645C0.279198 13.4896 0.00220548 14.146 0.00110372 14.8975L0 16.8164L0.000946384 16.8154ZM18.1968 2.18365C19.723 1.48351 21.5208 1.81171 22.6982 2.97895C24.2597 4.5258 24.2597 7.03414 22.6982 8.58116C21.2868 9.98034 19.0477 10.1346 17.4575 8.93559C19.147 7.03867 19.3942 4.32018 18.1968 2.18365Z" fill="#BC9313"/>
</svg>
