<svg width="16" height="17" viewBox="0 0 16 17" fill="none" xmlns="http://www.w3.org/2000/svg">
<path d="M15.5791 7.4742C15.8105 7.4742 16 7.28467 16 7.05329C16 6.82192 15.8105 6.63239 15.5791 6.63239H14.3156V4.94796H15.5791C15.8105 4.94796 16 4.75844 16 4.52706C16 4.29568 15.8105 4.10616 15.5791 4.10616H14.3156V3.68525C14.3156 2.75419 13.5614 2.00083 12.6312 2.00083H12.2102V0.73731C12.2102 0.505934 12.0207 0.316406 11.7893 0.316406C11.558 0.316406 11.3684 0.505934 11.3684 0.73731V2.00083H9.68402V0.73731C9.68402 0.505934 9.49449 0.316406 9.26312 0.316406C9.03174 0.316406 8.84221 0.505934 8.84221 0.73731V2.00083H7.15779V0.73731C7.15779 0.505934 6.96826 0.316406 6.73689 0.316406C6.50551 0.316406 6.31598 0.505934 6.31598 0.73731V2.00083H4.63156V0.73731C4.63156 0.505934 4.44203 0.316406 4.21065 0.316406C3.97928 0.316406 3.78975 0.505934 3.78975 0.73731V2.00083H3.36885C2.43778 2.00083 1.68442 2.755 1.68442 3.68525V4.10616H0.420904C0.189528 4.10616 0 4.29568 0 4.52706C0 4.75844 0.189528 4.94796 0.420904 4.94796H1.68442V6.63239H0.420904C0.189528 6.63239 0 6.82192 0 7.05329C0 7.28467 0.189528 7.4742 0.420904 7.4742H1.68442V9.15862H0.420904C0.189528 9.15862 0 9.34815 0 9.57952C0 9.8109 0.189528 10.0004 0.420904 10.0004H1.68442V11.6849H0.420904C0.189528 11.6849 0 11.8744 0 12.1058C0 12.3371 0.189528 12.5267 0.420904 12.5267H1.68442V12.9476C1.68442 13.8786 2.43859 14.632 3.36885 14.632H3.78975V15.8955C3.78975 16.1269 3.97928 16.3164 4.21065 16.3164C4.44203 16.3164 4.63156 16.1269 4.63156 15.8955V14.632H6.31598V15.8955C6.31598 16.1269 6.50551 16.3164 6.73689 16.3164C6.96826 16.3164 7.15779 16.1269 7.15779 15.8955V14.632H8.84221V15.8955C8.84221 16.1269 9.03174 16.3164 9.26312 16.3164C9.49449 16.3164 9.68402 16.1269 9.68402 15.8955V14.632H11.3684V15.8955C11.3684 16.1269 11.558 16.3164 11.7893 16.3164C12.0207 16.3164 12.2102 16.1269 12.2102 15.8955V14.632H12.6312C13.5622 14.632 14.3156 13.8778 14.3156 12.9476V12.5267H15.5791C15.8105 12.5267 16 12.3371 16 12.1058C16 11.8744 15.8105 11.6849 15.5791 11.6849H14.3156V10.0004H15.5791C15.8105 10.0004 16 9.8109 16 9.57952C16 9.34815 15.8105 9.15862 15.5791 9.15862H14.3156V7.4742H15.5791ZM10.9459 11.6865H5.04923C4.81785 11.6865 4.62832 11.4969 4.62832 11.2656V5.36887C4.62832 5.13749 4.81785 4.94796 5.04923 4.94796H10.9459C11.1773 4.94796 11.3668 5.13749 11.3668 5.36887V11.2656C11.3668 11.4969 11.1773 11.6865 10.9459 11.6865Z" fill="#BC9313"/>
</svg>
