<svg width="175" height="42" viewBox="0 0 175 42" fill="none" xmlns="http://www.w3.org/2000/svg">
<path d="M56.2893 34.578V12.6867H48.3985V10.752C48.3968 10.385 48.4681 10.0214 48.608 9.68221C48.7479 9.34301 48.9538 9.03495 49.2137 8.77589C49.4735 8.51683 49.7822 8.31193 50.1219 8.17306C50.4615 8.03419 50.8254 7.9641 51.1923 7.96688H69.5948V12.6814H61.7809V34.578H56.2893Z" fill="#FDF9F0"/>
<path d="M81.4298 34.578L73.7695 7.9668H79.4183L83.9827 26.7657L87.8504 7.9668H93.7296L97.5205 26.7657L101.62 9.97835C101.931 8.63732 102.834 7.9668 104.329 7.9668H107.734L100.152 34.578H94.8908L90.7909 14.1481L86.6124 34.578H81.4298Z" fill="#FDF9F0"/>
<path d="M112.527 34.578V10.752C112.526 10.385 112.597 10.0214 112.737 9.68221C112.877 9.34301 113.083 9.03495 113.343 8.77589C113.602 8.51683 113.911 8.31193 114.251 8.17306C114.59 8.03419 114.954 7.9641 115.321 7.96688H118.029V34.578H112.527Z" fill="#FDF9F0"/>
<path d="M141.148 31.4087C140.217 32.7497 139.111 33.7293 137.831 34.3474C136.434 34.9262 134.934 35.216 133.422 35.1995C129.605 35.1995 126.587 33.9359 124.37 31.4087C122.1 28.9326 120.965 25.5282 120.965 21.1955C120.965 16.9163 122.074 13.5404 124.293 11.0679C126.613 8.49059 129.682 7.20136 133.499 7.2002C136.799 7.2002 139.534 7.99934 141.705 9.59764C143.818 11.3007 145.082 13.5189 145.496 16.2522H141.782C140.7 16.2522 139.9 15.7621 139.383 14.7819C138.983 14.1194 138.457 13.5412 137.836 13.0794C136.805 12.3577 135.438 11.9968 133.736 11.9968C131.519 11.9968 129.765 12.796 128.475 14.3943C127.184 16.0973 126.54 18.3673 126.542 21.2042C126.542 24.0935 127.212 26.3635 128.552 28.0142C129.84 29.6136 131.672 30.4134 134.045 30.4134C135.798 30.4134 137.242 29.9233 138.377 28.9431C139.512 27.9117 140.235 26.4933 140.544 24.6878H137.295C136.928 24.6905 136.564 24.6205 136.224 24.4816C135.885 24.3427 135.576 24.1378 135.316 23.8788C135.056 23.6197 134.85 23.3116 134.71 22.9724C134.571 22.6332 134.499 22.2696 134.501 21.9027V20.1129H145.564V34.5779H144.094C142.651 34.5779 141.748 33.8562 141.386 32.4127L141.148 31.4087Z" fill="#FDF9F0"/>
<path d="M169.617 31.4087C168.686 32.7497 167.58 33.7293 166.3 34.3474C164.902 34.9262 163.403 35.216 161.891 35.1995C158.072 35.1995 155.055 33.9359 152.839 31.4087C150.569 28.9326 149.434 25.5282 149.434 21.1955C149.434 16.9163 150.543 13.5404 152.762 11.0679C155.082 8.49059 158.15 7.20136 161.967 7.2002C165.268 7.2002 168.003 7.99934 170.174 9.59764C172.288 11.3007 173.552 13.5189 173.965 16.2522H170.253C169.168 16.2522 168.368 15.7621 167.854 14.7819C167.453 14.1194 166.928 13.5412 166.307 13.0794C165.275 12.3577 163.909 11.9968 162.207 11.9968C159.995 11.9968 158.241 12.796 156.945 14.3943C155.655 16.0973 155.01 18.3673 155.011 21.2042C155.011 24.0935 155.681 26.3635 157.022 28.0142C158.311 29.6136 160.142 30.4134 162.516 30.4134C164.269 30.4134 165.713 29.9233 166.848 28.9431C167.983 27.9117 168.705 26.4933 169.015 24.6878H165.755C165.388 24.6905 165.024 24.6205 164.684 24.4816C164.345 24.3427 164.036 24.1378 163.776 23.8788C163.516 23.6197 163.31 23.3116 163.17 22.9724C163.031 22.6332 162.959 22.2696 162.961 21.9027V20.1129H174.024V34.5779H172.565C171.121 34.5779 170.218 33.8562 169.856 32.4127L169.617 31.4087Z" fill="#FDF9F0"/>
<path d="M41.2364 20.5865C41.2364 24.9733 40.3839 29.1553 38.1092 32.9473C34.7837 38.4893 29.8259 41.5544 23.4023 41.9483C16.7937 42.3554 10.83 40.3622 5.96738 35.8472C1.20915 31.4405 -0.606909 25.7835 0.175555 19.3612C0.951411 12.9945 3.88301 7.73003 8.91087 3.77938C12.8496 0.683885 17.4717 -0.392008 22.4454 0.123467C26.6749 0.562281 30.6546 1.7677 34.0264 4.43627C38.326 7.83841 40.6046 12.3733 41.0831 17.8201C41.1637 18.7387 41.1875 19.6639 41.2364 20.5865ZM38.5031 19.9164C38.5031 19.3322 38.5308 18.7453 38.5031 18.1624C38.2586 13.7161 36.5588 9.93071 33.2029 6.98193C31.1305 5.16587 28.6192 4.14152 26.0101 3.35113C21.6338 2.02279 17.3078 2.29375 13.2633 4.3345C6.77628 7.60049 3.3596 13.1637 2.64587 20.2508C1.9784 26.8713 4.69587 32.1807 10.115 35.9357C14.5401 38.9982 19.5825 39.9009 24.9012 39.1634C27.7905 38.7669 30.4009 37.7425 32.5672 35.6859C37.1113 31.3784 38.7714 26.0069 38.5031 19.9164Z" fill="#FDF9F0"/>
<path d="M21.4031 5.98776C23.7465 5.96 26.3887 6.65655 28.8669 8.01C33.2128 10.3825 35.0552 14.2459 35.3434 18.9909C35.498 21.5802 35.4148 24.1972 34.6072 26.6742C32.8889 31.9532 28.9964 35.7544 22.816 36.0664C18.0433 36.3083 13.8692 34.9469 10.3521 31.7641C7.13238 28.8563 5.57539 25.1357 5.90714 20.7938C6.35653 14.9028 9.29738 10.4949 14.3662 7.53022C16.3541 6.36314 18.6341 5.9111 21.4031 5.98776ZM8.4594 21.6265C8.44486 24.1153 9.15331 26.5407 10.8385 28.6422C13.1833 31.5593 16.3171 32.9775 19.9452 33.5128C26.1574 34.4314 30.5481 31.1522 32.2783 25.6287C32.6436 24.3889 32.844 23.1063 32.8744 21.8142C32.9973 18.7398 32.7753 15.7091 30.9526 13.0669C28.5034 9.5181 22.8544 7.74831 18.2032 8.74093C13.6525 9.71372 8.24264 15.6959 8.4594 21.6265Z" fill="#FDF9F0"/>
<path d="M21.1049 12.3351C25.185 12.2029 29.9446 15.3262 29.6366 21.0175C29.3313 26.6785 26.3138 29.9405 21.3798 29.8982C14.9443 29.844 12.0893 25.0078 12.2149 21.0426C12.3616 16.3862 16.459 12.2835 21.1049 12.3351ZM27.0738 20.8259C27.1385 17.474 24.7951 15.0103 21.4895 14.9402C17.8164 14.8688 14.8676 17.6141 14.7777 21.188C14.6931 24.5941 17.3948 27.2891 20.9648 27.3565C24.8335 27.4306 26.9932 25.1215 27.0738 20.8259Z" fill="#FDF9F0"/>
</svg>
