<svg width="56" height="58" viewBox="0 0 56 58" fill="none" xmlns="http://www.w3.org/2000/svg">
<path d="M55.5791 28.4421C55.5791 34.3548 54.4301 39.9913 51.3642 45.1022C46.8821 52.5719 40.1999 56.703 31.542 57.2339C22.6348 57.7826 14.5969 55.0962 8.04293 49.0107C1.62971 43.0714 -0.818002 35.4468 0.236616 26.7907C1.28233 18.2095 5.23359 11.114 12.0102 5.78922C17.3189 1.61706 23.5487 0.166958 30.2523 0.861723C35.9529 1.45316 41.3168 3.07785 45.8613 6.67459C51.6564 11.26 54.7276 17.3722 55.3725 24.7136C55.4811 25.9517 55.5132 27.1987 55.5791 28.4421ZM51.8951 27.5389C51.8951 26.7515 51.9325 25.9606 51.8951 25.175C51.5655 19.1822 49.2746 14.0801 44.7515 10.1057C41.9582 7.65796 38.5734 6.27733 35.0568 5.21202C29.1585 3.42166 23.3278 3.78686 17.8765 6.53742C9.13318 10.9394 4.52813 18.4375 3.56615 27.9896C2.66651 36.9129 6.32918 44.069 13.6331 49.1301C19.5974 53.2577 26.3936 54.4745 33.5622 53.4804C37.4564 52.946 40.9748 51.5653 43.8946 48.7934C50.0192 42.9877 52.2567 35.7479 51.8951 27.5389Z" fill="#214838" fill-opacity="0.2"/>
<path d="M28.8452 8.767C32.0037 8.72959 35.5648 9.66841 38.9051 11.4926C44.7625 14.6903 47.2458 19.8975 47.6342 26.2929C47.8426 29.7828 47.7304 33.31 46.6419 36.6485C44.326 43.7636 39.0796 48.887 30.7496 49.3075C24.3168 49.6335 18.691 47.7986 13.9505 43.5088C9.61091 39.5896 7.51236 34.5749 7.9595 28.7228C8.5652 20.7829 12.5289 14.8418 19.3608 10.846C22.0401 9.27294 25.1131 8.66368 28.8452 8.767ZM11.3995 29.8451C11.3799 33.1996 12.3347 36.4685 14.6061 39.301C17.7664 43.2327 21.9902 45.1442 26.8803 45.8657C35.2531 47.1038 41.1711 42.684 43.503 35.2394C43.9954 33.5683 44.2655 31.8397 44.3064 30.0981C44.4721 25.9544 44.1728 21.8696 41.7162 18.3084C38.4152 13.5253 30.8012 11.1399 24.5323 12.4778C18.3988 13.7889 11.1073 21.8518 11.3995 29.8451Z" fill="#BC9313"/>
<path d="M28.4464 17.3199C33.9457 17.1417 40.3607 21.3513 39.9456 29.0222C39.5341 36.6522 35.467 41.0488 28.8169 40.9918C20.143 40.9187 16.2951 34.4004 16.4643 29.0561C16.6621 22.78 22.1846 17.2504 28.4464 17.3199ZM36.4914 28.7639C36.5787 24.2462 33.4202 20.9255 28.9648 20.8311C24.0141 20.7349 20.0397 24.435 19.9186 29.252C19.8045 33.8428 23.4458 37.4752 28.2575 37.5661C33.4718 37.6658 36.3827 34.5536 36.4914 28.7639Z" fill="#BC9313"/>
</svg>
