<svg width="471" height="141" viewBox="0 0 471 141" fill="none" xmlns="http://www.w3.org/2000/svg">
<path d="M172.557 88.1207V32.8952H152.65V28.0145C152.646 27.0888 152.826 26.1715 153.179 25.3158C153.532 24.4601 154.051 23.6829 154.707 23.0294C155.363 22.3759 156.141 21.859 156.998 21.5086C157.855 21.1583 158.773 20.9815 159.698 20.9885H206.123V32.882H186.41V88.1207H172.557Z" fill="#FDF9F0"/>
<path d="M235.981 88.1205L216.656 20.9883H230.906L242.421 68.4125L252.178 20.9883H267.01L276.573 68.4125L286.916 26.0628C287.7 22.6798 289.977 20.9883 293.748 20.9883H302.338L283.211 88.1205H269.939L259.596 36.582L249.055 88.1205H235.981Z" fill="#FDF9F0"/>
<path d="M314.43 88.1207V28.0145C314.426 27.0888 314.605 26.1715 314.958 25.3158C315.311 24.4601 315.831 23.6829 316.486 23.0294C317.142 22.3759 317.921 21.859 318.777 21.5086C319.634 21.1583 320.552 20.9815 321.478 20.9885H328.31V88.1207H314.43Z" fill="#FDF9F0"/>
<path d="M386.632 80.1256C384.283 83.5086 381.493 85.9799 378.263 87.5392C374.738 88.9992 370.955 89.7305 367.14 89.6889C357.511 89.6889 349.899 86.5011 344.305 80.1256C338.578 73.8793 335.715 65.291 335.715 54.3607C335.715 43.5656 338.514 35.0492 344.111 28.8117C349.964 22.31 357.705 19.0576 367.334 19.0547C375.659 19.0547 382.561 21.0707 388.037 25.1027C393.368 29.3991 396.555 34.9949 397.601 41.8902H388.231C385.5 41.8902 383.483 40.6539 382.179 38.1812C381.169 36.5099 379.843 35.0511 378.276 33.8863C375.674 32.0656 372.226 31.1552 367.933 31.1552C362.339 31.1552 357.915 33.1712 354.661 37.2033C351.404 41.4996 349.779 47.2261 349.784 54.3828C349.784 61.6716 351.474 67.3981 354.855 71.5623C358.105 75.5972 362.725 77.6148 368.713 77.6148C373.135 77.6148 376.778 76.3784 379.641 73.9057C382.505 71.3038 384.327 67.7255 385.108 63.1707H376.91C375.985 63.1777 375.067 63.001 374.21 62.6506C373.353 62.3003 372.575 61.7834 371.919 61.1299C371.263 60.4763 370.744 59.6992 370.391 58.8434C370.038 57.9877 369.858 57.0704 369.862 56.1448V51.6296H397.772V88.1207H394.063C390.422 88.1207 388.145 86.2999 387.231 82.6585L386.632 80.1256Z" fill="#FDF9F0"/>
<path d="M458.447 80.1256C456.097 83.5086 453.308 85.9799 450.077 87.5392C446.553 88.9992 442.769 89.7305 438.955 89.6889C429.322 89.6889 421.71 86.5011 416.119 80.1256C410.393 73.8793 407.529 65.291 407.529 54.3607C407.529 43.5656 410.328 35.0492 415.925 28.8117C421.778 22.31 429.519 19.0576 439.148 19.0547C447.474 19.0547 454.375 21.0707 459.852 25.1027C465.185 29.3991 468.373 34.9949 469.415 41.8902H460.05C457.313 41.8902 455.296 40.6539 453.998 38.1812C452.988 36.5099 451.662 35.0511 450.095 33.8863C447.493 32.0656 444.045 31.1552 439.752 31.1552C434.172 31.1552 429.748 33.1712 426.48 37.2033C423.223 41.4996 421.596 47.2261 421.599 54.3828C421.599 61.6716 423.29 67.3981 426.673 71.5623C429.924 75.5972 434.544 77.6148 440.532 77.6148C444.954 77.6148 448.597 76.3784 451.46 73.9057C454.324 71.3038 456.146 67.7255 456.927 63.1707H448.703C447.777 63.1777 446.859 63.001 446.002 62.6506C445.146 62.3003 444.367 61.7834 443.711 61.1299C443.056 60.4763 442.536 59.6992 442.183 58.8434C441.83 57.9877 441.651 57.0704 441.655 56.1448V51.6296H469.565V88.1207H465.882C462.241 88.1207 459.963 86.2999 459.05 82.6585L458.447 80.1256Z" fill="#FDF9F0"/>
<path d="M178.024 102.365V118.809H174.711V108.114L170.306 118.809H167.808L163.377 108.114V118.809H160.082V102.365H163.826L169.055 114.589L174.284 102.365H178.024Z" fill="#FDF9F0"/>
<path d="M188.438 117.89C187.165 117.182 186.108 116.144 185.376 114.886C184.634 113.562 184.244 112.069 184.244 110.551C184.244 109.033 184.634 107.541 185.376 106.217C186.109 104.959 187.166 103.921 188.438 103.212C189.74 102.501 191.2 102.129 192.684 102.129C194.168 102.129 195.628 102.501 196.931 103.212C198.195 103.923 199.245 104.961 199.97 106.217C200.704 107.543 201.089 109.035 201.089 110.551C201.089 112.067 200.704 113.559 199.97 114.886C199.243 116.145 198.188 117.183 196.917 117.89C195.617 118.601 194.159 118.973 192.678 118.973C191.196 118.973 189.738 118.601 188.438 117.89ZM195.292 115.357C196.052 114.9 196.664 114.233 197.054 113.436C197.475 112.53 197.693 111.543 197.693 110.545C197.693 109.546 197.475 108.559 197.054 107.653C196.663 106.864 196.051 106.206 195.292 105.759C194.497 105.307 193.594 105.079 192.68 105.098C191.756 105.077 190.843 105.305 190.037 105.759C189.277 106.204 188.664 106.862 188.275 107.653C187.854 108.559 187.636 109.546 187.636 110.545C187.636 111.543 187.854 112.53 188.275 113.436C188.663 114.234 189.276 114.901 190.037 115.357C190.84 115.817 191.754 116.048 192.68 116.027C193.595 116.047 194.499 115.815 195.292 115.357Z" fill="#FDF9F0"/>
<path d="M221.369 118.81H218.07L210.604 107.525V118.81H207.309V102.34H210.608L218.07 113.669V102.362H221.369V118.81Z" fill="#FDF9F0"/>
<path d="M231.686 105.027V109.15H237.223V111.767H231.686V116.123H237.927V118.81H228.391V102.34H237.927V105.027H231.686Z" fill="#FDF9F0"/>
<path d="M257.764 102.365L252.205 113.083V118.809H248.905V113.083L243.324 102.365H247.046L250.57 109.88L254.094 102.365H257.764Z" fill="#FDF9F0"/>
<path d="M267.044 115.344L264.287 121.951H262.168L263.701 115.344H267.044Z" fill="#FDF9F0"/>
<path d="M300.497 102.365V118.809H297.197V108.114L292.792 118.809H290.295L285.868 108.114V118.809H282.568V102.365H286.313L291.546 114.589L296.774 102.365H300.497Z" fill="#FDF9F0"/>
<path d="M317.596 115.674H311.046L309.962 118.81H306.5L312.416 102.34H316.253L322.169 118.81H318.68L317.596 115.674ZM316.715 113.031L314.336 106.155L311.958 113.031H316.715Z" fill="#FDF9F0"/>
<path d="M338.454 103.379C339.73 104.018 340.788 105.022 341.493 106.264C342.229 107.591 342.599 109.09 342.568 110.607C342.602 112.119 342.231 113.613 341.493 114.933C340.781 116.163 339.724 117.159 338.454 117.796C337.039 118.495 335.477 118.843 333.899 118.809H328.15V102.365H333.899C335.477 102.332 337.039 102.68 338.454 103.379ZM337.784 114.589C338.727 113.647 339.198 112.325 339.198 110.625C339.198 108.925 338.727 107.587 337.784 106.612C336.841 105.643 335.507 105.16 333.78 105.163H331.445V116.021H333.78C335.51 116.009 336.844 115.532 337.784 114.589Z" fill="#FDF9F0"/>
<path d="M352.105 105.027V109.15H357.643V111.767H352.105V116.123H358.347V118.81H348.811V102.34H358.347V105.027H352.105Z" fill="#FDF9F0"/>
<path d="M377.065 118.382C376.197 118.029 375.443 117.442 374.889 116.686C374.345 115.925 374.055 115.01 374.061 114.074H377.585C377.592 114.375 377.66 114.671 377.783 114.946C377.906 115.22 378.083 115.468 378.303 115.673C378.794 116.085 379.424 116.296 380.065 116.263C380.717 116.301 381.36 116.104 381.88 115.708C382.094 115.534 382.265 115.313 382.38 115.061C382.494 114.81 382.549 114.535 382.54 114.259C382.549 114.04 382.515 113.822 382.439 113.616C382.364 113.411 382.248 113.222 382.1 113.061C381.787 112.733 381.404 112.479 380.981 112.317C380.377 112.085 379.76 111.885 379.135 111.717C378.247 111.469 377.377 111.158 376.532 110.788C375.852 110.472 375.261 109.994 374.809 109.396C374.299 108.671 374.046 107.797 374.091 106.912C374.07 106.008 374.325 105.12 374.823 104.366C375.332 103.627 376.043 103.05 376.871 102.705C377.826 102.306 378.854 102.11 379.888 102.128C381.366 102.061 382.823 102.497 384.02 103.366C384.549 103.777 384.98 104.3 385.285 104.897C385.589 105.494 385.759 106.15 385.782 106.819H382.188C382.177 106.547 382.107 106.28 381.983 106.038C381.859 105.795 381.684 105.582 381.47 105.414C380.964 105.031 380.341 104.836 379.708 104.863C379.151 104.834 378.602 105.009 378.166 105.357C377.969 105.538 377.815 105.761 377.715 106.009C377.615 106.258 377.572 106.525 377.589 106.793C377.584 106.996 377.62 107.198 377.696 107.387C377.772 107.575 377.885 107.746 378.03 107.89C378.341 108.193 378.709 108.433 379.113 108.594C379.71 108.834 380.319 109.042 380.937 109.22C381.815 109.466 382.675 109.775 383.509 110.145C384.203 110.466 384.808 110.951 385.271 111.559C385.784 112.278 386.04 113.148 385.998 114.03C386.004 114.894 385.768 115.743 385.315 116.479C384.834 117.259 384.14 117.886 383.316 118.285C382.339 118.752 381.266 118.982 380.184 118.955C379.116 118.979 378.054 118.784 377.065 118.382Z" fill="#FDF9F0"/>
<path d="M395.899 102.365V118.809H392.6V102.365H395.899Z" fill="#FDF9F0"/>
<path d="M420.846 102.365V118.809H417.546V108.114L413.141 118.809H410.644L406.239 108.114V118.809H402.939V102.365H406.688L411.917 114.589L417.146 102.365H420.846Z" fill="#FDF9F0"/>
<path d="M439.233 109.925C438.781 110.728 438.1 111.377 437.277 111.788C436.232 112.293 435.08 112.535 433.92 112.493H431.163V118.81H427.863V102.366H433.92C435.04 102.335 436.151 102.559 437.171 103.023C438.008 103.413 438.709 104.045 439.184 104.837C439.615 105.614 439.845 106.487 439.853 107.375C439.862 108.264 439.649 109.14 439.233 109.925ZM435.806 109.207C436.033 108.976 436.209 108.7 436.322 108.396C436.435 108.093 436.482 107.768 436.462 107.445C436.462 105.842 435.568 105.04 433.779 105.04H431.163V109.824H433.779C434.509 109.886 435.234 109.665 435.806 109.207Z" fill="#FDF9F0"/>
<path d="M449.252 116.193H454.671V118.809H445.953V102.365H449.252V116.193Z" fill="#FDF9F0"/>
<path d="M463.834 105.027V109.15H469.371V111.767H463.834V116.123H470.076V118.81H460.539V102.34H470.076V105.027H463.834Z" fill="#FDF9F0"/>
<path d="M138.353 69.1214C138.353 83.7416 135.511 97.679 127.93 110.317C116.847 128.787 100.324 139.002 78.916 140.315C56.891 141.672 37.0157 135.029 20.8097 119.982C4.95167 105.295 -1.1008 86.4419 1.50696 65.038C4.09269 43.8191 13.863 26.274 30.6196 13.1074C43.7465 2.79094 59.1508 -0.794747 75.7268 0.923203C89.8228 2.38566 103.086 6.40303 114.323 15.2967C128.653 26.6352 136.247 41.7487 137.842 59.9018C138.11 62.9632 138.19 66.0467 138.353 69.1214ZM129.243 66.8881C129.243 64.9411 129.336 62.9853 129.243 61.0427C128.428 46.2242 122.763 33.6083 111.579 23.7808C104.672 17.7283 96.3026 14.3144 87.6071 11.6802C73.0221 7.25318 58.6046 8.15621 45.1253 14.9575C23.5055 25.8423 12.1186 44.3829 9.7399 68.0026C7.51538 90.0672 16.5721 107.762 34.6326 120.277C49.3805 130.483 66.1856 133.492 83.9113 131.034C93.5406 129.712 102.241 126.298 109.46 119.444C124.605 105.088 130.137 87.1863 129.243 66.8881Z" fill="#FDF9F0"/>
<path d="M72.2474 20.469C80.0575 20.3765 88.8631 22.6979 97.1224 27.2086C111.606 35.1156 117.747 47.9914 118.707 63.8054C119.222 72.4347 118.945 81.1567 116.253 89.4116C110.527 107.005 97.5541 119.674 76.9564 120.714C61.0499 121.52 47.1389 116.982 35.4172 106.375C24.6866 96.6842 19.4975 84.2842 20.6032 69.8138C22.1009 50.1807 31.902 35.49 48.7952 25.6096C55.4203 21.72 63.0189 20.2135 72.2474 20.469ZM29.1093 72.5889C29.0608 80.8835 31.4219 88.9667 37.0383 95.9706C44.8527 105.692 55.297 110.419 67.3887 112.203C88.0922 115.265 102.726 104.336 108.492 85.9273C109.709 81.7953 110.377 77.5209 110.478 73.2144C110.888 62.9684 110.148 52.8677 104.074 44.0621C95.9111 32.2347 77.0841 26.3364 61.5829 29.6446C46.4165 32.8867 28.3868 52.8237 29.1093 72.5889Z" fill="#FDF9F0"/>
<path d="M71.2604 41.6209C84.8586 41.1804 100.721 51.5894 99.6946 70.5573C98.6771 89.4239 88.6205 100.295 72.1766 100.154C50.7287 99.9739 41.2139 83.856 41.6323 70.641C42.1213 55.1222 55.7768 41.4491 71.2604 41.6209ZM91.1533 69.9186C91.3692 58.7475 83.5591 50.5366 72.5422 50.3031C60.3007 50.0652 50.4732 59.2144 50.1736 71.1255C49.8917 82.4772 58.8955 91.459 70.7934 91.6837C83.6869 91.9303 90.8846 84.2348 91.1533 69.9186Z" fill="#FDF9F0"/>
</svg>
