<svg width="56" height="56" viewBox="0 0 56 56" fill="none" xmlns="http://www.w3.org/2000/svg">
<g filter="url(#filter0_n_311_3433)">
<circle cx="28" cy="28" r="28" fill="#214838"/>
<circle cx="28" cy="28" r="27.5" stroke="url(#paint0_linear_311_3433)" stroke-opacity="0.4"/>
</g>
<path d="M23.4443 17.0769C22.2739 17.1322 21.4746 17.3189 20.7759 17.5935C20.0528 17.8753 19.4398 18.2535 18.83 18.8655C18.2202 19.4776 17.8446 20.0909 17.5648 20.8152C17.2939 21.5154 17.1105 22.3154 17.0588 23.4864C17.0071 24.6575 16.9956 25.0339 17.0013 28.0211C17.0071 31.0083 17.0203 31.3827 17.077 32.5562C17.1329 33.7264 17.319 34.5254 17.5936 35.2244C17.8758 35.9475 18.2536 36.5602 18.8659 37.1703C19.4781 37.7803 20.091 38.155 20.8171 38.4353C21.5167 38.7056 22.3168 38.89 23.4877 38.9413C24.6585 38.9925 25.0354 39.0044 28.0217 38.9987C31.008 38.993 31.384 38.9798 32.5573 38.9241C33.7305 38.8684 34.5254 38.681 35.2246 38.4078C35.9477 38.1248 36.5609 37.7478 37.1705 37.1353C37.7801 36.5228 38.1554 35.909 38.4351 35.1843C38.7061 34.4847 38.8902 33.6846 38.9411 32.5146C38.9923 31.3405 39.0044 30.9656 38.9987 27.9788C38.993 24.9921 38.9796 24.6177 38.9239 23.4446C38.8682 22.2716 38.6819 21.475 38.4076 20.7756C38.1249 20.0524 37.7475 19.4402 37.1355 18.8297C36.5235 18.2192 35.9092 17.8441 35.1847 17.5651C34.4847 17.2943 33.685 17.1097 32.5141 17.0591C31.3433 17.0085 30.9664 16.9955 27.979 17.0013C24.9916 17.007 24.6176 17.0197 23.4443 17.0769ZM23.5728 36.9624C22.5003 36.9157 21.9179 36.7375 21.5299 36.5884C21.0159 36.3904 20.6499 36.151 20.2631 35.768C19.8763 35.385 19.6387 35.0176 19.4381 34.5047C19.2874 34.1166 19.1059 33.535 19.0557 32.4625C19.0012 31.3033 18.9897 30.9552 18.9833 28.0184C18.977 25.0817 18.9882 24.7341 19.039 23.5744C19.0848 22.5028 19.2641 21.9198 19.413 21.5319C19.611 21.0174 19.8495 20.6519 20.2334 20.2654C20.6173 19.8789 20.9836 19.6408 21.4969 19.4402C21.8845 19.2888 22.4662 19.1089 23.5383 19.0578C24.6983 19.0028 25.0459 18.9918 27.9823 18.9854C30.9187 18.9791 31.2672 18.9901 32.4277 19.0411C33.4993 19.0877 34.0825 19.2653 34.47 19.4151C34.9841 19.6131 35.35 19.8509 35.7365 20.2355C36.1231 20.62 36.3613 20.985 36.562 21.4994C36.7135 21.8859 36.8935 22.4674 36.9441 23.5401C36.9993 24.7002 37.0119 25.048 37.0171 27.9841C37.0224 30.9203 37.0121 31.269 36.9613 32.4281C36.9144 33.5006 36.7366 34.0832 36.5873 34.4717C36.3893 34.9854 36.1506 35.3517 35.7664 35.7381C35.3823 36.1244 35.0164 36.3624 34.503 36.5631C34.1158 36.7142 33.5334 36.8946 32.4622 36.9456C31.3021 37.0002 30.9545 37.0116 28.0171 37.018C25.0796 37.0244 24.7329 37.0125 23.5728 36.9624ZM32.5403 22.1209C32.5408 22.382 32.6186 22.6371 32.764 22.8539C32.9095 23.0708 33.1159 23.2396 33.3573 23.3391C33.5987 23.4386 33.8642 23.4643 34.1202 23.4129C34.3762 23.3615 34.6111 23.2353 34.7954 23.0504C34.9797 22.8654 35.105 22.6299 35.1555 22.3738C35.2059 22.1176 35.1793 21.8522 35.0789 21.6112C34.9785 21.3702 34.8089 21.1643 34.5915 21.0197C34.3742 20.8751 34.1188 20.7982 33.8577 20.7987C33.5077 20.7994 33.1723 20.9391 32.9252 21.187C32.6782 21.435 32.5397 21.7709 32.5403 22.1209ZM22.352 28.011C22.3582 31.1306 24.8917 33.6538 28.0107 33.6478C31.1297 33.6419 33.6546 31.1086 33.6487 27.989C33.6427 24.8694 31.1085 22.3455 27.9891 22.3517C24.8697 22.3578 22.3461 24.8918 22.352 28.011ZM24.3334 28.007C24.3319 27.2818 24.5456 26.5724 24.9473 25.9687C25.349 25.3649 25.9207 24.8938 26.5902 24.6149C27.2597 24.336 27.9968 24.262 28.7084 24.4021C29.4199 24.5421 30.074 24.8901 30.5878 25.4018C31.1016 25.9136 31.4521 26.5663 31.595 27.2773C31.7379 27.9883 31.6668 28.7257 31.3906 29.3962C31.1144 30.0668 30.6455 30.6404 30.0433 31.0445C29.4411 31.4486 28.7326 31.6651 28.0074 31.6665C27.5258 31.6675 27.0488 31.5737 26.6036 31.3903C26.1583 31.2069 25.7535 30.9376 25.4123 30.5978C25.0712 30.258 24.8003 29.8543 24.6151 29.4097C24.43 28.9652 24.3342 28.4886 24.3334 28.007Z" fill="#FDF9F0"/>
<defs>
<filter id="filter0_n_311_3433" x="0" y="0" width="56" height="56" filterUnits="userSpaceOnUse" color-interpolation-filters="sRGB">
<feFlood flood-opacity="0" result="BackgroundImageFix"/>
<feBlend mode="normal" in="SourceGraphic" in2="BackgroundImageFix" result="shape"/>
<feTurbulence type="fractalNoise" baseFrequency="2 2" stitchTiles="stitch" numOctaves="3" result="noise" seed="6696" />
<feColorMatrix in="noise" type="luminanceToAlpha" result="alphaNoise" />
<feComponentTransfer in="alphaNoise" result="coloredNoise1">
<feFuncA type="discrete" tableValues="1 1 1 1 1 1 1 1 1 1 1 1 1 1 1 1 1 1 1 1 1 1 1 1 1 1 1 1 1 1 1 1 1 1 1 1 1 1 1 1 1 1 1 1 1 1 1 1 1 1 1 0 0 0 0 0 0 0 0 0 0 0 0 0 0 0 0 0 0 0 0 0 0 0 0 0 0 0 0 0 0 0 0 0 0 0 0 0 0 0 0 0 0 0 0 0 0 0 0 0 "/>
</feComponentTransfer>
<feComposite operator="in" in2="shape" in="coloredNoise1" result="noise1Clipped" />
<feFlood flood-color="rgba(253, 249, 240, 0.2)" result="color1Flood" />
<feComposite operator="in" in2="noise1Clipped" in="color1Flood" result="color1" />
<feMerge result="effect1_noise_311_3433">
<feMergeNode in="shape" />
<feMergeNode in="color1" />
</feMerge>
</filter>
<linearGradient id="paint0_linear_311_3433" x1="1.5" y1="17" x2="28" y2="56" gradientUnits="userSpaceOnUse">
<stop stop-color="#FDF9F0"/>
<stop offset="1" stop-color="#FDF9F0" stop-opacity="0.5"/>
</linearGradient>
</defs>
</svg>
