<svg width="42" height="42" viewBox="0 0 42 42" fill="none" xmlns="http://www.w3.org/2000/svg">
<path d="M41.2364 20.5865C41.2364 24.9733 40.3839 29.1553 38.1092 32.9473C34.7837 38.4893 29.8259 41.5544 23.4023 41.9483C16.7937 42.3554 10.83 40.3622 5.96738 35.8472C1.20915 31.4405 -0.606909 25.7835 0.175555 19.3612C0.951411 12.9945 3.88301 7.73003 8.91087 3.77938C12.8496 0.683885 17.4717 -0.392008 22.4454 0.123467C26.6749 0.562281 30.6546 1.7677 34.0264 4.43627C38.326 7.83841 40.6046 12.3733 41.0831 17.8201C41.1637 18.7387 41.1875 19.6639 41.2364 20.5865ZM38.5031 19.9164C38.5031 19.3322 38.5308 18.7453 38.5031 18.1624C38.2586 13.7161 36.5588 9.93071 33.2029 6.98193C31.1305 5.16587 28.6192 4.14152 26.0101 3.35113C21.6338 2.02279 17.3078 2.29375 13.2633 4.3345C6.77628 7.60049 3.3596 13.1637 2.64587 20.2508C1.9784 26.8713 4.69587 32.1807 10.115 35.9357C14.5401 38.9982 19.5825 39.9009 24.9012 39.1634C27.7905 38.7669 30.4009 37.7425 32.5672 35.6859C37.1113 31.3784 38.7714 26.0069 38.5031 19.9164Z" fill="#FDF9F0"/>
<path d="M21.4011 5.98874C23.7446 5.96098 26.3867 6.65753 28.865 8.01098C33.2108 10.3835 35.0533 14.2469 35.3414 18.9919C35.4961 21.5812 35.4128 24.1982 34.6052 26.6751C32.887 31.9541 28.9945 35.7554 22.8141 36.0674C18.0413 36.3092 13.8673 34.9478 10.3502 31.7651C7.13043 28.8573 5.57343 25.1366 5.90519 20.7948C6.35457 14.9038 9.29542 10.4958 14.3643 7.5312C16.3521 6.36411 18.6321 5.91208 21.4011 5.98874ZM8.45745 21.6274C8.44291 24.1163 9.15136 26.5416 10.8366 28.6432C13.1813 31.5602 16.3151 32.9785 19.9433 33.5138C26.1554 34.4324 30.5462 31.1532 32.2763 25.6297C32.6417 24.3898 32.8421 23.1073 32.8724 21.8151C32.9954 18.7408 32.7733 15.7101 30.9506 13.0679C28.5015 9.51908 22.8524 7.74928 18.2012 8.7419C13.6505 9.7147 8.24068 15.6968 8.45745 21.6274Z" fill="#FDF9F0"/>
<path d="M21.1049 12.3341C25.185 12.2019 29.9446 15.3252 29.6366 21.0166C29.3313 26.6775 26.3138 29.9395 21.3798 29.8972C14.9443 29.8431 12.0893 25.0069 12.2149 21.0417C12.3616 16.3852 16.459 12.2826 21.1049 12.3341ZM27.0738 20.8249C27.1385 17.473 24.7951 15.0093 21.4895 14.9392C17.8164 14.8679 14.8676 17.6131 14.7777 21.1871C14.6931 24.5932 17.3948 27.2882 20.9648 27.3556C24.8335 27.4296 26.9932 25.1205 27.0738 20.8249Z" fill="#FDF9F0"/>
</svg>
